<?xml version="1.0" encoding="UTF-8"?>
<svg version="1.1" xmlns="http://www.w3.org/2000/svg" width="512" height="512">
<path d="M0 0 C2.88559891 9.29831788 3.43127483 18.11944139 3.38818359 27.76757812 C3.39225832 29.31636422 3.39760521 30.8651474 3.40411377 32.41392517 C3.41768623 36.58544861 3.41253078 40.75674724 3.40297651 44.92827415 C3.39532728 49.31485937 3.40244003 53.70142664 3.40713501 58.0880127 C3.41257734 65.4514508 3.40544109 72.81479833 3.39111328 80.17822266 C3.3747897 88.66478437 3.38007929 97.15112978 3.3965925 105.63768625 C3.41025093 112.9527236 3.41210581 120.26769622 3.40427649 127.58274221 C3.39962383 131.93915439 3.39890825 136.29546525 3.40888596 140.65187073 C3.41761711 144.74948199 3.4114228 148.84681713 3.39420319 152.94439888 C3.39027091 154.43904222 3.39131574 155.93370921 3.39799118 157.42834282 C3.46886017 174.92246211 -0.31069569 189.51316223 -12.4609375 202.55078125 C-13.29882812 203.35902344 -14.13671875 204.16726563 -15 205 C-15.53778076 205.52754883 -16.07556152 206.05509766 -16.62963867 206.59863281 C-22.33087212 211.91889287 -28.71900491 215.45769347 -35.5625 219.125 C-36.76609782 219.78000205 -37.96905006 220.43619165 -39.17138672 221.09350586 C-41.00671309 222.09664937 -42.8424027 223.0990468 -44.68017578 224.09770203 C-50.36582768 227.18758718 -55.99955677 230.36471367 -61.625 233.5625 C-69.56971254 238.06623013 -77.52906907 242.5428382 -85.5 247 C-94.4513656 252.00605225 -103.38731475 257.03842726 -112.31176758 262.09228516 C-120.59931386 266.78210924 -128.90821669 271.4333942 -137.2265625 276.06835938 C-138.68255859 276.88143555 -138.68255859 276.88143555 -140.16796875 277.7109375 C-141.12751465 278.24557617 -142.08706055 278.78021484 -143.07568359 279.33105469 C-145.08589976 280.47831113 -147.07779404 281.65808694 -149.05322266 282.86425781 C-150.56795166 283.78609863 -150.56795166 283.78609863 -152.11328125 284.7265625 C-153.44999878 285.55921631 -153.44999878 285.55921631 -154.8137207 286.40869141 C-157.64016639 287.82028998 -160.18193766 288.71925452 -163.19914246 289.59945679 C-164.09851626 289.86353521 -164.99789007 290.12761364 -165.92451763 290.39969444 C-166.60942681 290.59779528 -167.29433599 290.79589611 -168 291 C-168.65564587 266.26179199 -169.14857124 241.52489438 -169.45074081 216.7797327 C-169.59481453 205.28809897 -169.79097906 193.80187775 -170.11230469 182.3137207 C-170.39243081 172.29372046 -170.57225453 162.27763874 -170.63447785 152.2538318 C-170.67083772 146.9492911 -170.75541418 141.65595236 -170.96044159 136.35502815 C-172.19467239 103.18510108 -172.19467239 103.18510108 -165.2591095 95.58242416 C-158.93160286 89.76787379 -151.22377041 86.36099981 -143.2886734 83.31242943 C-138.95630136 81.5834853 -135.15672776 79.29973496 -131.25 76.78125 C-130.0316556 76.05417748 -128.81071907 75.33141006 -127.5859375 74.61523438 C-116.34436363 67.98531002 -105.14310047 61.29410754 -94 54.5 C-83.37173018 48.01979206 -72.68666855 41.64081716 -61.97409058 35.30105591 C-52.29935485 29.57388491 -42.66475962 23.78531967 -33.0625 17.9375 C-16.06668067 7.59890546 -16.06668067 7.59890546 -9.9375 3.9375 C-9.25888916 3.52556396 -8.58027832 3.11362793 -7.88110352 2.68920898 C-3.3465346 0 -3.3465346 0 0 0 Z " fill="#000000" transform="translate(440,165)"/>
<path d="M0 0 C4.4174846 0.76681107 7.70558312 2.34277494 11.50390625 4.65625 C12.13054672 5.03007812 12.75718719 5.40390625 13.40281677 5.7890625 C15.46034275 7.01902443 17.51138677 8.25937865 19.5625 9.5 C21.00811986 10.3671097 22.4540883 11.23363848 23.90039062 12.09960938 C34.09957321 18.21513238 44.26167143 24.3928159 54.41625977 30.58203125 C63.23823563 35.95486931 72.11101238 41.2389102 81 46.5 C92.17444474 53.11377423 103.29837709 59.80336002 114.38452148 66.56396484 C124.89518125 72.96604297 135.47874707 79.24354674 146.08007812 85.49414062 C146.72585312 85.8758139 147.37162811 86.25748718 148.03697205 86.65072632 C149.77652729 87.67883534 151.51724413 88.70497827 153.25805664 89.73095703 C153.8278764 90.0946769 154.39769615 90.45839678 154.98478317 90.83313847 C157.06480063 92.10004995 157.06480063 92.10004995 159.72777176 93.10526943 C163.16026847 94.72924807 165.41709363 96.1955669 168 99 C169.6514797 105.11719743 169.39290586 111.12424459 169.2487793 117.41967773 C169.24567476 119.31230996 169.24742153 121.20495542 169.25364685 123.09757996 C169.25679987 128.22626625 169.192191 133.35211579 169.11533332 138.48014331 C169.0465104 143.8424961 169.04010289 149.20491592 169.02705383 154.56764221 C168.99288078 164.71825183 168.90263775 174.86755633 168.79220945 185.01759154 C168.66920469 196.57478573 168.60876436 208.13204267 168.55355966 219.68972862 C168.43861879 243.46054231 168.24517141 267.230198 168 291 C166.10911575 290.39608638 164.22047077 289.78515933 162.33276367 289.17138672 C161.28078293 288.83195038 160.22880219 288.49251404 159.14494324 288.14279175 C154.20911448 286.34923811 149.81988882 283.79197934 145.3125 281.125 C143.29861338 279.96018284 141.28427432 278.79614765 139.26953125 277.6328125 C138.23908691 277.0337207 137.20864258 276.43462891 136.14697266 275.81738281 C130.9621409 272.82313242 125.7297738 269.91479567 120.5 267 C111.53985693 261.9908461 102.59717233 256.951705 93.6640625 251.89453125 C86.62053546 247.9096317 79.56298327 243.95029731 72.5 240 C61.51800299 233.85458082 50.54101215 227.70155315 39.60693359 221.47119141 C37.15245626 220.08603685 34.6831955 218.73260632 32.20703125 217.38671875 C14.66331207 207.71065202 3.91959663 195.48913351 -2 176 C-2.93656326 172.09449753 -3.13008371 168.4557786 -3.14044189 164.44322205 C-3.14341302 163.79813189 -3.14638414 163.15304173 -3.1494453 162.48840338 C-3.15809153 160.33462216 -3.1596371 158.18089679 -3.16113281 156.02709961 C-3.16576402 154.47934858 -3.17078909 152.93159868 -3.17617798 151.3838501 C-3.18927823 147.18306162 -3.19574276 142.98228912 -3.20018864 138.78148341 C-3.20312431 136.15296577 -3.20723013 133.52445243 -3.21169281 130.89593697 C-3.22536393 122.66050104 -3.23503144 114.42507503 -3.2388947 106.18962854 C-3.24336914 96.70494085 -3.26089005 87.22039771 -3.2898953 77.73575395 C-3.31157064 70.39114972 -3.32160216 63.04658598 -3.32293582 55.70195013 C-3.32398003 51.32193885 -3.32980504 46.94206352 -3.34775543 42.56208611 C-3.36433675 38.43587065 -3.36634329 34.30989186 -3.35761642 30.18365479 C-3.35685129 28.67771835 -3.36111876 27.17176866 -3.37107468 25.66586494 C-3.42670489 16.71924185 -2.67610392 8.59207578 0 0 Z " fill="#000000" transform="translate(72,165)"/>
<path d="M0 0 C5.94632671 3.43228909 11.93216793 6.79176063 17.92578125 10.140625 C18.97032471 10.72465088 20.01486816 11.30867676 21.09106445 11.91040039 C23.21972087 13.10023631 25.34854649 14.28976958 27.47753906 15.47900391 C41.66401282 23.40393635 55.84507519 31.3380173 69.97924805 39.35595703 C75.10140785 42.2584995 80.23674179 45.13458077 85.390625 47.98046875 C86.51210938 48.60179688 87.63359375 49.223125 88.7890625 49.86328125 C90.94126494 51.05445322 93.09605731 52.24096265 95.25390625 53.421875 C101.07978189 56.65168548 106.48427819 60.08544145 111.67578125 64.265625 C110.35541655 68.2267191 108.81117439 68.63080186 105.21875 70.6796875 C104.65317383 71.006203 104.08759766 71.33271851 103.50488281 71.66912842 C102.27567918 72.37773061 101.04415728 73.08232285 99.81063843 73.78338623 C96.47369993 75.68072059 93.15417609 77.6081706 89.83203125 79.53125 C89.14779587 79.92625702 88.46356049 80.32126404 87.7585907 80.72824097 C81.06498628 84.59958757 74.4598277 88.60631056 67.86328125 92.640625 C57.84501135 98.75820405 47.77793292 104.78762482 37.67578125 110.765625 C27.63869148 116.70593425 17.63387633 122.69379841 7.67578125 128.765625 C-3.90503392 135.82624302 -15.55054817 142.773178 -27.22851562 149.671875 C-27.86310699 150.04746552 -28.49769836 150.42305603 -29.15151978 150.81002808 C-30.39757116 151.54658666 -31.6449244 152.28094786 -32.89364624 153.01296997 C-35.97382463 154.82780612 -38.99978675 156.69157359 -41.97705078 158.67138672 C-42.56265274 159.05403183 -43.1482547 159.43667694 -43.75160217 159.83091736 C-45.3507503 160.88193445 -46.93674109 161.95289347 -48.52172852 163.02514648 C-51.32421875 164.265625 -51.32421875 164.265625 -53.82568359 163.68017578 C-55.0624585 162.97997314 -55.0624585 162.97997314 -56.32421875 162.265625 C-57.24340088 161.76474365 -58.16258301 161.2638623 -59.10961914 160.74780273 C-60.12016357 160.15427002 -61.13070801 159.5607373 -62.171875 158.94921875 C-63.01174957 158.45732307 -63.01174957 158.45732307 -63.86859131 157.95549011 C-65.7102048 156.87512546 -67.54856164 155.78935851 -69.38671875 154.703125 C-70.69031146 153.93597254 -71.99394166 153.16888378 -73.29760742 152.40185547 C-83.11399483 146.61572312 -92.8609179 140.7195852 -102.58813477 134.78491211 C-111.4596506 129.37598444 -120.38222564 124.05709539 -129.32421875 118.765625 C-140.49880989 112.1521017 -151.62259933 105.46226285 -162.70874023 98.70166016 C-173.2194 92.29958203 -183.80296582 86.02207826 -194.40429688 79.77148438 C-201.80068947 75.40365607 -209.11451005 70.93860167 -216.32421875 66.265625 C-214.39814699 61.84033517 -211.47875682 60.23990836 -207.38671875 57.953125 C-206.65018066 57.53071533 -205.91364258 57.10830566 -205.15478516 56.6730957 C-202.55282667 55.1888577 -199.94000835 53.72534726 -197.32421875 52.265625 C-196.30924316 51.6984375 -195.29426758 51.13125 -194.24853516 50.546875 C-189.14613444 47.70002223 -184.03836148 44.86301002 -178.92558289 42.03485107 C-172.16282788 38.2935452 -165.42293379 34.51408786 -158.69921875 30.703125 C-150.75388029 26.20049052 -142.79509504 21.72290167 -134.82421875 17.265625 C-126.73238615 12.7389314 -118.64744732 8.20042173 -110.57421875 3.640625 C-109.63602295 3.11218994 -108.69782715 2.58375488 -107.73120117 2.03930664 C-103.01003923 -0.62547607 -98.3106822 -3.32074209 -93.640625 -6.07421875 C-75.84013266 -16.52755944 -75.84013266 -16.52755944 -66.32421875 -18.734375 C-65.57269531 -18.92128906 -64.82117188 -19.10820313 -64.046875 -19.30078125 C-39.37340324 -23.23012898 -20.55122802 -11.87310273 0 0 Z " fill="#000000" transform="translate(308.32421875,73.734375)"/>
</svg>
